<svg id="Layer_1" data-name="Layer 1" xmlns="http://www.w3.org/2000/svg" viewBox="0 0 1813.78 682.16"><defs><style>.cls-1{fill:#fff;}.cls-2{fill:#e9490a;}.cls-3{fill:#eaeaea;}</style></defs><polygon class="cls-1" points="699.2 207.21 898.3 207.21 918.63 173.94 661.44 173.94 661.44 512.2 920.48 512.2 920.48 486.32 698.67 486.32 699.2 207.21"/><polygon class="cls-1" points="748.84 305.18 748.84 255.27 868.73 255.27 887.21 223.85 715.04 223.85 715.04 332.9 920.48 332.9 920.48 305.18 748.84 305.18"/><polygon class="cls-1" points="715.04 469.69 920.48 469.69 920.48 443.28 748.58 443.28 748.58 383.34 920.48 383.34 920.48 356.93 715.04 356.93 715.04 469.69"/><polygon class="cls-1" points="1330.48 170.24 1297.4 170.24 1299.25 508.5 1478.55 508.5 1495.45 482.62 1330.48 482.62 1330.48 170.24"/><polygon class="cls-1" points="1382.17 440.11 1382.17 170.24 1348.89 170.24 1351.07 464.14 1506.27 464.14 1524.56 440.11 1382.17 440.11"/><polygon class="cls-1" points="1526.41 524.35 1565.42 488.17 1522.91 471.53 1526.41 524.35"/><polygon class="cls-1" points="1742.87 488.17 1781.68 525.14 1784.85 471.53 1742.87 488.17"/><path class="cls-1" d="M1705.31,451l76,208.87,46-14.79L1743.6,423.22s12.94-55.45-38.82-64.69v-7.4h9V336.35H1681v14.78h10.56v7.4s-49.64,7.39-38.55,59.15l-85,225.24,46.21,16.9,27.73-73.94s37,25.88,94.27,7.39L1727,560s-48,11.88-74.86-7.92L1691.84,451Zm-30.1-46.21a22.18,22.18,0,1,1,22.18,22.18A22.18,22.18,0,0,1,1675.21,404.74Z" transform="translate(-45.09 -180.89)"/><path class="cls-1" d="M1198.19,481.06a281.71,281.71,0,0,0-29.61-1.17c-22,.07-44.12,1.78-66.12.38-5.67-.36-11.51-1-16.45-3.77a21.65,21.65,0,0,1-10.68-18,23.17,23.17,0,0,1,9.37-18.85c8.13-6,19-6.13,29.1-6.05l127.74,1.08c6.65.06,10.83-.95,14.45-6.72l16.67-26.61-146.25-.87c-19.94-.12-41.24.16-57.76,11.32a52.3,52.3,0,0,0-22.26,37.79c-2.65,27.12,16.48,53.38,42.67,60.19,10.27,2.67,21,2.54,31.65,2.4l46.37-.63c16.22-.22,32.79-.39,48.19,4.69,30,9.88,51.82,41.06,50.27,72.69-1.16,23.8-14.94,46.33-34.93,59.1-23.51,15-56.42,12.6-83.4,12.43l-155.91-1v27.86l173.87.52c22,.07,44.57,0,65-8,39-15.26,63-56.43,62.55-97.52-.36-33.35-17.81-66.85-45.7-85.61C1232.61,487,1215.54,482.82,1198.19,481.06Z" transform="translate(-45.09 -180.89)"/><path class="cls-1" d="M1080.58,555.57c14.94,2.27,30.3,1.9,45.48,1.51l43.75-1.11c10.64-.27,21.78-.43,31.25,4.41a32.16,32.16,0,0,1,17.18,29.12c-.47,11.89-8.54,23.2-19.71,27.3-6.64,2.44-13.9,2.44-21,2.41l-186.39-.9,0,24.87H1179c11.65,0,23.63-.05,34.45-4.38,14.84-5.93,25.83-19.62,30.55-34.89,8.34-27-4.78-60.21-31-70.71-12.14-4.85-25.6-4.83-38.68-4.74l-58.24.4c-17.28.11-35,.16-51.21-5.88-25-9.34-43.67-33.79-46.07-60.38-2.18-24.26,9.25-49.17,28.7-63.72,22.47-16.81,53.14-17.36,80-17.24l6.89.05,140,1.39c3.52,0,7.25,0,10.25-1.81,2.38-1.45,4-3.85,5.52-6.18l16.75-25.4-151.58-1.1c-31.14-.23-62.63-.45-93.25,6-22.49,4.74-42.1,24-53.5,43.28a113.1,113.1,0,0,0-15.43,66.68,101,101,0,0,0,12.85,40.73,103.92,103.92,0,0,0,63,47.9A113.24,113.24,0,0,0,1080.58,555.57Z" transform="translate(-45.09 -180.89)"/><path class="cls-1" d="M474.62,825.34h10.75v-54H474.62V762h25.89l18.68,48.45L536.56,762h25.9v9.34H551.78v54h10.68v9.34H533.57v-9.34h9.17V770.83l-21.4,59.7h-4.82l-22.1-57.84v52.65h9.08v9.34H474.62Zm2.39-49.9h6.69v2.22H477Zm29.36,63.32V828.61H508V841H477v-2.22Zm-9.17-52.64,1.6,4.14v31.58h-1.6ZM505,765h1.75l13.91,35.72-.92,2.45Zm18.21,69.69,17.61-49.26v4.84L524.25,836.9h-4.1l-.84-2.22Zm42.11,4.08V828.61h1.59V841H536v-2.22Zm-10.76-63.32h10.76V764.93h1.59v12.73H556.16v44.18h-1.59Z" transform="translate(-45.09 -180.89)"/><path class="cls-1" d="M577.87,825.34h10.76v-54H577.87V762h59.24v22.77h-9V771.35H598v23h20v7.29H598v23.7h30.16V811.92h9v22.76H577.87Zm2.39-49.9H587v2.22h-6.7ZM640,838.76V815.18h1.59V841H580.26v-2.22Zm-39.12-63.32h25.61v2.22h-24v13.19h-1.59Zm0,30.29h20v-8.46h1.59V808h-20v13.89h-1.59Zm29.68-16.87H640V764.93h1.59v26.15h-11Z" transform="translate(-45.09 -180.89)"/><path class="cls-1" d="M653.05,798.38a53.83,53.83,0,0,1,.85-9.58,45.68,45.68,0,0,1,2.59-9,39.4,39.4,0,0,1,4.32-7.9,29.08,29.08,0,0,1,6.06-6.31,27.13,27.13,0,0,1,7.83-4.14,29.57,29.57,0,0,1,9.58-1.49,24.22,24.22,0,0,1,5.54.64,28.66,28.66,0,0,1,5.27,1.78,26.84,26.84,0,0,1,4.78,2.78,24.38,24.38,0,0,1,4,3.61V762h9v21h-9a23.08,23.08,0,0,0-3.35-5.51,22.76,22.76,0,0,0-4.7-4.35,22.41,22.41,0,0,0-5.74-2.83,20.53,20.53,0,0,0-6.45-1,16.81,16.81,0,0,0-9.14,2.45,20.33,20.33,0,0,0-6.44,6.51,30.89,30.89,0,0,0-3.8,9.28A46,46,0,0,0,663,798.38,40,40,0,0,0,664.6,810,28.81,28.81,0,0,0,669,819a20.79,20.79,0,0,0,6.79,5.92,18,18,0,0,0,8.69,2.13,23.48,23.48,0,0,0,7.81-1.23,19.65,19.65,0,0,0,6.25-3.53,22.25,22.25,0,0,0,4.76-5.63,36.54,36.54,0,0,0,3.37-7.47l6.13,6.07q-3.71,10.4-10.81,15.76t-17.87,5.37a26.89,26.89,0,0,1-12.47-2.92,30.2,30.2,0,0,1-9.84-8,38.61,38.61,0,0,1-6.47-12.08A46.78,46.78,0,0,1,653.05,798.38Zm9.72,33.5a25.25,25.25,0,0,0,4.44,3.53,33.29,33.29,0,0,0,11.15,4.49,29.37,29.37,0,0,0,5.88.61,35.78,35.78,0,0,0,9.7-1.28,30.8,30.8,0,0,0,8.44-3.76,28.88,28.88,0,0,0,6.8-6.13,30.83,30.83,0,0,0,4.74-8.32l1.39,1.23a31.94,31.94,0,0,1-4.86,8.66,29.68,29.68,0,0,1-7,6.45,31.67,31.67,0,0,1-8.88,4,38.45,38.45,0,0,1-10.38,1.37,29.47,29.47,0,0,1-6.26-.67,26.15,26.15,0,0,1-5.91-2,24.73,24.73,0,0,1-5.18-3.39A19.31,19.31,0,0,1,662.77,831.88Zm3.1-33.56a35.7,35.7,0,0,1,1.32-10,25.5,25.5,0,0,1,3.68-7.88,17.68,17.68,0,0,1,5.66-5.2,14.5,14.5,0,0,1,7.27-1.87,17.53,17.53,0,0,1,9.18,2.37,17.32,17.32,0,0,1,6.36,6.74,22.81,22.81,0,0,0-7.35-5.22,21,21,0,0,0-8.35-1.67,13,13,0,0,0-6.79,1.81,16.31,16.31,0,0,0-5.1,4.87,23.46,23.46,0,0,0-3.19,7.13,32.63,32.63,0,0,0-1.09,8.55,38.73,38.73,0,0,0,.81,8.14,24.87,24.87,0,0,0,2.59,6.91,22.88,22.88,0,0,0,4.6,5.72,28.1,28.1,0,0,0,6.9,4.5,18.35,18.35,0,0,1-6.8-2.86,19.59,19.59,0,0,1-5.19-5.31,25.3,25.3,0,0,1-3.33-7.44A34.94,34.94,0,0,1,665.87,798.32Zm40.4-11.21h9.52V765h1.59v24.34H706.27Z" transform="translate(-45.09 -180.89)"/><path class="cls-1" d="M726.27,825.34H737v-54H726.27V762h30.47v9.34H746.07v23h35.57v-23H771V762h30.48v9.34H790.68v54h10.76v9.34H771v-9.34h10.68v-23.7H746.07v23.7h10.67v9.34H726.27Zm2.39-49.9,6.69,2.22h-6.69Zm31,63.32V828.61h1.59V841H728.66v-2.22Zm-10.68-63.32h10.64V765h1.59v12.67H750.53v13.19h-1.6Zm0,30.29h31.12V808H750.53v13.89h-1.6Zm24.42-30.29H780v2.22h-6.62Zm31,63.32V828.61h1.51V841H773.35v-2.22Zm-10.76-63.32h10.72V765h1.59v12.67H795.14v44.18h-1.59Z" transform="translate(-45.09 -180.89)"/><path class="cls-1" d="M810.64,825.34h8.61L845.46,762h8.6l25.74,63.33h10.36v9.34H859.48v-9.34h9.64l-5.77-14.88H835.42l-5.62,14.88H839v9.34H810.64Zm31.23,13.42V828.55h1.6V841H812.39v-2.22ZM837,814.54h26l.71,2.22H838.17l-1.87,5.08h-2Zm23.51-11.38-11.28-29-11,29Zm-10.56-22.35,1,2.57-6.42,16.28h-2ZM860.4,765l23.06,56.85h-1.83L858.56,765ZM893,838.76V828.55h1.68V841H861.19v-2.22Z" transform="translate(-45.09 -180.89)"/><path class="cls-1" d="M901.43,825.34h10v-54H900.63V762h23.31L958.79,815v-43.6H948V762h30.47v9.34H967.76v63.33h-8.57l-38.84-60.23v50.89h10.76v9.34H901.43Zm1.59-49.9,6.7,2.22H903Zm31,63.32V828.61h1.59V841H903.82v-2.22Zm-10.76-56.38,1.59,2.57v36.89h-1.59Zm8.41-17.45,25.61,37.82v3.39l-27.73-41.21Zm18.8,10.51h6.69v2.22h-6.69Zm20.2,63.32V775.44h10.75V764.93H983v12.73H972.22V841H961.58v-2.22Z" transform="translate(-45.09 -180.89)"/><path class="cls-1" d="M992.93,825.34h11.16v-54H993.33V762h30.88v9.34h-11.08v54h10.68v9.34H992.93Zm33.75,13.42V828.61h1.59V841H995.33v-2.22Zm-31-63.32h6.7v2.22h-6.7Zm20.28,0h11V764.93h1.59v12.73h-11v44.18H1016Z" transform="translate(-45.09 -180.89)"/><path class="cls-1" d="M1037.07,798.38a53.84,53.84,0,0,1,.86-9.58,45.68,45.68,0,0,1,2.59-9,39.4,39.4,0,0,1,4.32-7.9,29.08,29.08,0,0,1,6.06-6.31,27.13,27.13,0,0,1,7.83-4.14,29.52,29.52,0,0,1,9.58-1.49,24.07,24.07,0,0,1,5.53.64,28.51,28.51,0,0,1,5.28,1.78,26.84,26.84,0,0,1,4.78,2.78,24.38,24.38,0,0,1,4,3.61V762h9v21h-9a23.08,23.08,0,0,0-3.35-5.51,22.25,22.25,0,0,0-10.44-7.18,20.53,20.53,0,0,0-6.45-1,16.78,16.78,0,0,0-9.14,2.45,20.33,20.33,0,0,0-6.44,6.51,30.63,30.63,0,0,0-3.8,9.28,46,46,0,0,0-1.26,10.83,39.68,39.68,0,0,0,1.6,11.58,28.81,28.81,0,0,0,4.44,9.08,20.79,20.79,0,0,0,6.79,5.92,18,18,0,0,0,8.69,2.13,23.42,23.42,0,0,0,7.8-1.23,19.59,19.59,0,0,0,6.26-3.53,22.25,22.25,0,0,0,4.76-5.63,36.54,36.54,0,0,0,3.37-7.47l6.13,6.07q-3.7,10.4-10.82,15.76t-17.86,5.37a26.89,26.89,0,0,1-12.47-2.92,30.2,30.2,0,0,1-9.84-8,38.61,38.61,0,0,1-6.47-12.08A46.78,46.78,0,0,1,1037.07,798.38Zm9.72,33.5a25.71,25.71,0,0,0,4.45,3.53,33.29,33.29,0,0,0,11.15,4.49,29.3,29.3,0,0,0,5.88.61,35.78,35.78,0,0,0,9.7-1.28,30.93,30.93,0,0,0,8.44-3.76,28.88,28.88,0,0,0,6.8-6.13A30.83,30.83,0,0,0,1098,821l1.39,1.23a31.94,31.94,0,0,1-4.86,8.66,29.68,29.68,0,0,1-7,6.45,31.6,31.6,0,0,1-8.89,4,38.32,38.32,0,0,1-10.37,1.37,29.4,29.4,0,0,1-6.26-.67,26.15,26.15,0,0,1-5.91-2,24.47,24.47,0,0,1-5.18-3.39A19.57,19.57,0,0,1,1046.79,831.88Zm3.11-33.56a35.7,35.7,0,0,1,1.32-10,25.5,25.5,0,0,1,3.68-7.88,17.68,17.68,0,0,1,5.66-5.2,14.5,14.5,0,0,1,7.27-1.87,17.53,17.53,0,0,1,9.18,2.37,17.32,17.32,0,0,1,6.36,6.74,23,23,0,0,0-7.35-5.22,21,21,0,0,0-8.35-1.67,13,13,0,0,0-6.79,1.81,16.31,16.31,0,0,0-5.1,4.87,23.22,23.22,0,0,0-3.19,7.13,32.63,32.63,0,0,0-1.09,8.55,38.73,38.73,0,0,0,.81,8.14,24.87,24.87,0,0,0,2.59,6.91,22.88,22.88,0,0,0,4.6,5.72,28.22,28.22,0,0,0,6.89,4.5,18.3,18.3,0,0,1-6.79-2.86,19.78,19.78,0,0,1-5.2-5.31,25.55,25.55,0,0,1-3.32-7.44A34.54,34.54,0,0,1,1049.9,798.32Zm40.4-11.21h9.52V765h1.59v24.34H1090.3Z" transform="translate(-45.09 -180.89)"/><path class="cls-1" d="M1104.32,825.34h8.6L1139.14,762h8.6l25.74,63.33h10.35v9.34h-30.67v-9.34h9.64L1157,810.46H1129.1l-5.62,14.88h9.2v9.34h-28.36Zm31.23,13.42V828.55h1.59V841h-31.07v-2.22Zm-4.9-24.22h26l.71,2.22h-25.53l-1.88,5.08h-2Zm23.51-11.38-11.28-29-11,29Zm-10.56-22.35,1,2.57-6.41,16.28h-2ZM1154.08,765l23.06,56.85h-1.83L1152.24,765Zm32.58,73.77V828.55h1.68V841h-33.47v-2.22Z" transform="translate(-45.09 -180.89)"/><path class="cls-1" d="M1194.71,825.34h10.36v-54h-11V762h31.23v9.34h-11.15v54h27.69V808.41h9v26.27h-56Zm1.71-49.32h7v2.22h-7Zm57.21,62.74V811.68h1.59V841H1197.1v-2.22ZM1217,776h11.11V764.93h1.6v13.31h-11.12v43.6H1217Z" transform="translate(-45.09 -180.89)"/><path class="cls-1" d="M1291.15,791.49h22.95v9.63h-22.95Zm3.43,13.71H1317v-8.11h1.59v10.33h-24Z" transform="translate(-45.09 -180.89)"/><path class="cls-1" d="M1354.81,825.34h10.8v-54h-10.8V762h29.8q5.3,0,9.32.38a26.69,26.69,0,0,1,7.29,1.67,24,24,0,0,1,12.83,11.84q4.26,8.42,4.26,22.42a64.62,64.62,0,0,1-1,11.87,38.92,38.92,0,0,1-3.11,9.81,26,26,0,0,1-5.26,7.44,22.22,22.22,0,0,1-7.47,4.79,31.74,31.74,0,0,1-7.31,1.86,64.78,64.78,0,0,1-9.14.59h-30.2Zm2.4-49.9h6.73v2.22h-6.73Zm26.53,63.32c1.85,0,3.69-.06,5.49-.2s3.52-.32,5.14-.56,3.12-.51,4.48-.84a28.59,28.59,0,0,0,3.57-1.08,22.88,22.88,0,0,0,7.79-5,30,30,0,0,0,5.91-8.17,45.35,45.35,0,0,0,3.75-11,66.13,66.13,0,0,0,1.31-13.57,65.42,65.42,0,0,0-.67-9.84,43.27,43.27,0,0,0-2-8.05,33.63,33.63,0,0,0-3.24-6.68,39.15,39.15,0,0,0-4.44-5.72,26.46,26.46,0,0,1,5.13,5,27.4,27.4,0,0,1,3.75,6.6A40.44,40.44,0,0,1,1422,788a61.33,61.33,0,0,1,.8,10.31,69.76,69.76,0,0,1-1.34,14A48.26,48.26,0,0,1,1417.6,824a31.34,31.34,0,0,1-6.3,8.78,24.75,24.75,0,0,1-8.56,5.43,45.18,45.18,0,0,1-8.09,2,68.67,68.67,0,0,1-10.91.76h-26.38v-2.22Zm3.18-13.42a28.66,28.66,0,0,0,10-1.52,14.89,14.89,0,0,0,6.58-4.67,19.74,19.74,0,0,0,3.62-8,53.77,53.77,0,0,0,1.12-11.73v-2.16a50.73,50.73,0,0,0-1.14-11.5,20.16,20.16,0,0,0-3.68-8.05,15.1,15.1,0,0,0-6.68-4.76,29.07,29.07,0,0,0-10.14-1.55h-12v54Zm-9.56-49.9h8.45a42.7,42.7,0,0,1,6.73.44,17.32,17.32,0,0,1,4.68,1.34,11.33,11.33,0,0,1,3.35,2.36,25,25,0,0,1,2.77,3.5,23.43,23.43,0,0,0-3.09-2.36,16.13,16.13,0,0,0-3.65-1.69,25,25,0,0,0-4.66-1,45.92,45.92,0,0,0-6.13-.35H1379v44.18h-1.6Z" transform="translate(-45.09 -180.89)"/><path class="cls-1" d="M1433.09,825.34h10.76v-54h-10.76V762h59.24v22.77h-9V771.35h-30.16v23h20v7.29h-20v23.7h30.16V811.92h9v22.76h-59.24Zm2.39-49.9h6.7v2.22h-6.7Zm59.72,63.32V815.18h1.59V841h-61.31v-2.22Zm-39.12-63.32h25.61v2.22h-24v13.19h-1.59Zm0,30.29h20v-8.46h1.59V808h-20v13.89h-1.59Zm29.68-16.87h9.44V764.93h1.59v26.15h-11Z" transform="translate(-45.09 -180.89)"/><path class="cls-1" d="M1511.45,813.67h8.17a35.81,35.81,0,0,0,11.31,10.24,26.2,26.2,0,0,0,12.59,3.24,16,16,0,0,0,5.26-.82,13.09,13.09,0,0,0,4.14-2.25,10.29,10.29,0,0,0,2.73-3.35,9.09,9.09,0,0,0,1-4.15,10.05,10.05,0,0,0-1.12-4.72A11.14,11.14,0,0,0,1552,808a23.86,23.86,0,0,0-6.3-3,57,57,0,0,0-9.26-2.1,37.29,37.29,0,0,1-10.72-3.06,24,24,0,0,1-7.23-5.17,19.06,19.06,0,0,1-4.1-6.77,24,24,0,0,1-1.29-7.88,18.92,18.92,0,0,1,1.51-7.44,18.4,18.4,0,0,1,4.5-6.36,22.61,22.61,0,0,1,7.45-4.47,29.34,29.34,0,0,1,10.36-1.69,23.43,23.43,0,0,1,16,6.1,43.2,43.2,0,0,1,3.83,3.94v-8h9v21h-9a24.12,24.12,0,0,0-3.11-5.42,21.33,21.33,0,0,0-4.4-4.35,20.73,20.73,0,0,0-5.44-2.89,18.26,18.26,0,0,0-6.17-1.05,18,18,0,0,0-6,.9,14.18,14.18,0,0,0-4.3,2.34,9.69,9.69,0,0,0-2.61,3.18,7.58,7.58,0,0,0-.88,3.44,11.05,11.05,0,0,0,.78,4.12,9.28,9.28,0,0,0,2.75,3.62,18.9,18.9,0,0,0,5.36,3,46.48,46.48,0,0,0,8.6,2.25,61.9,61.9,0,0,1,12.27,3.38,25.14,25.14,0,0,1,7.93,4.94,16.44,16.44,0,0,1,4.26,6.71,27.14,27.14,0,0,1,1.28,8.61,21.25,21.25,0,0,1-1.34,7.29,19.81,19.81,0,0,1-4.06,6.66,20.7,20.7,0,0,1-6.91,4.84,23.9,23.9,0,0,1-9.84,1.87,34.09,34.09,0,0,1-6.8-.67,31.38,31.38,0,0,1-6.25-2,35,35,0,0,1-5.84-3.24,46.64,46.64,0,0,1-5.57-4.49v8.64h-9Zm11.83,25.09V833a38.15,38.15,0,0,0,10,5.6,33.26,33.26,0,0,0,11.56,1.92,29,29,0,0,0,9.32-1.51,23.74,23.74,0,0,0,8-4.56,22.21,22.21,0,0,0,5.61-7.64,25.66,25.66,0,0,0,2.11-10.8,40.38,40.38,0,0,0-.53-6.8,21.55,21.55,0,0,0-2.14-6.16,11.21,11.21,0,0,1,1.74,2.43,18.07,18.07,0,0,1,1.33,3.15,25.2,25.2,0,0,1,.88,3.62,22.91,22.91,0,0,1,.32,3.76,29.13,29.13,0,0,1-2.09,11.38,24.37,24.37,0,0,1-5.72,8.38,24.71,24.71,0,0,1-8.49,5.19,29.88,29.88,0,0,1-10.39,1.78,36.11,36.11,0,0,1-11.1-1.57,30.88,30.88,0,0,1-8.74-4.38V841h-11.12v-2.22Zm-9.08-44.82a23.07,23.07,0,0,0,3.17,4.61,19.4,19.4,0,0,0,4.38,3.62,29.77,29.77,0,0,0,6,2.74,51.15,51.15,0,0,0,8.06,1.93c3,.5,5.57,1,7.71,1.57a32.89,32.89,0,0,1,5.32,1.78,10.34,10.34,0,0,1,3.25,2.19,6.47,6.47,0,0,1,1.53,2.86,19.37,19.37,0,0,0-2.45-1.78,18.9,18.9,0,0,0-3.33-1.52,46.7,46.7,0,0,0-5.1-1.43c-2-.46-4.62-1-7.72-1.51a43.71,43.71,0,0,1-8.67-2.4,27.8,27.8,0,0,1-6.37-3.47,15.72,15.72,0,0,1-4.07-4.32A11.72,11.72,0,0,1,1514.2,793.94Zm12.91-15.12a3.34,3.34,0,0,1,.85-2.22,7.08,7.08,0,0,1,2.38-1.69,16.43,16.43,0,0,1,3.56-1.11,23,23,0,0,1,4.44-.41,14,14,0,0,1,6.72,1.67,16,16,0,0,1,5.11,4.29,24,24,0,0,0-2.5-1.37c-.94-.45-1.91-.86-2.93-1.23a21.28,21.28,0,0,0-3.15-.87,15.81,15.81,0,0,0-3.17-.33,21.22,21.22,0,0,0-7.15,1A12.86,12.86,0,0,0,1527.11,778.82Zm32,8.29h9.44V765h1.67v24.34h-11.11Z" transform="translate(-45.09 -180.89)"/><path class="cls-1" d="M1582.2,825.34h11.16v-54H1582.6V762h30.88v9.34H1602.4v54h10.68v9.34H1582.2ZM1616,838.76V828.61h1.59V841h-33v-2.22Zm-31-63.32h6.7v2.22H1585Zm20.28,0h11V764.93h1.6v12.73h-11v44.18h-1.59Z" transform="translate(-45.09 -180.89)"/><path class="cls-1" d="M1626.66,798.32a49.94,49.94,0,0,1,.92-9.55,45.35,45.35,0,0,1,2.71-9,38.88,38.88,0,0,1,4.44-7.9,30.27,30.27,0,0,1,6.11-6.31,27.33,27.33,0,0,1,16.93-5.63,24.28,24.28,0,0,1,11.4,2.51,27.31,27.31,0,0,1,8.4,6.89V762h9.4v21h-9.4a40.16,40.16,0,0,0-4-5.86,24.8,24.8,0,0,0-4.5-4.29,18.48,18.48,0,0,0-5.26-2.66,20.44,20.44,0,0,0-6.19-.9,16.88,16.88,0,0,0-8.77,2.27,20,20,0,0,0-6.45,6.22,29.82,29.82,0,0,0-4,9.25,48.89,48.89,0,0,0,0,22.82,28,28,0,0,0,4,9.08,19.27,19.27,0,0,0,6.61,6,18.76,18.76,0,0,0,9.16,2.16,20.86,20.86,0,0,0,8.37-1.6A18.36,18.36,0,0,0,1673,821a21.38,21.38,0,0,0,4.19-6.91,31.65,31.65,0,0,0,1.89-8.93h-16.73v-7.3h25.85v36.83h-9.08V825.4a28.9,28.9,0,0,1-3.85,4.46,23.3,23.3,0,0,1-4.74,3.47,23.8,23.8,0,0,1-5.75,2.28,27,27,0,0,1-6.86.82,28.88,28.88,0,0,1-13.26-2.95,28.53,28.53,0,0,1-9.8-8.08,36.9,36.9,0,0,1-6.08-12.08A51.94,51.94,0,0,1,1626.66,798.32Zm10.2,33.56a36.27,36.27,0,0,0,4.56,3.91,24.3,24.3,0,0,0,4.82,2.68,25.19,25.19,0,0,0,5.42,1.55,37.42,37.42,0,0,0,6.31.49,35.46,35.46,0,0,0,5.52-.4,24.43,24.43,0,0,0,4.86-1.29,21.93,21.93,0,0,0,4.34-2.22,27.12,27.12,0,0,0,4-3.21v2.69a24.23,24.23,0,0,1-8.71,5.16,32.43,32.43,0,0,1-10.1,1.49,27,27,0,0,1-12.48-2.65A21.63,21.63,0,0,1,1636.86,831.88Zm3.11-33.56a38.24,38.24,0,0,1,1.21-9.87,25.87,25.87,0,0,1,3.49-7.91,16.85,16.85,0,0,1,5.56-5.25,14.62,14.62,0,0,1,7.43-1.9,20.29,20.29,0,0,1,5.19.62,14.91,14.91,0,0,1,4.19,1.78,14.65,14.65,0,0,1,3.32,2.89,22.1,22.1,0,0,1,2.67,3.94,28,28,0,0,0-3.58-3.24,19.55,19.55,0,0,0-3.59-2.16A16.39,16.39,0,0,0,1662,776a23.83,23.83,0,0,0-4.36-.38,13,13,0,0,0-6.78,1.78,15.89,15.89,0,0,0-5.06,4.85,23.38,23.38,0,0,0-3.16,7.21,34.6,34.6,0,0,0-1.1,8.87,35.81,35.81,0,0,0,.8,7.7,24.45,24.45,0,0,0,2.51,6.71,23.29,23.29,0,0,0,4.38,5.63,27.23,27.23,0,0,0,6.41,4.47,18.93,18.93,0,0,1-6.61-2.92,18.37,18.37,0,0,1-4.92-5.16,25,25,0,0,1-3.09-7.24A36.69,36.69,0,0,1,1640,798.32Zm24.58,10.91h12.27c-.06.23-.13.57-.22,1s-.2.85-.3,1.2h-11.75ZM1680,787.11h9.88V765h1.6v24.34H1680ZM1691,838.76v-38h1.59V841h-11.15v-2.22Z" transform="translate(-45.09 -180.89)"/><path class="cls-1" d="M1705.74,825.34h10v-54h-10.76V762h23.31L1763.1,815v-43.6h-10.75V762h30.47v9.34h-10.75v63.33h-8.57l-38.84-60.23v50.89h10.76v9.34h-29.68Zm1.59-49.9,6.69,2.22h-6.69Zm31,63.32V828.61h1.59V841h-31.75v-2.22Zm-10.76-56.38,1.59,2.57v36.89h-1.59Zm8.4-17.45,25.62,37.82v3.39l-27.73-41.21Zm18.81,10.51h6.69v2.22h-6.69Zm20.19,63.32V775.44h10.76V764.93h1.59v12.73h-10.75V841h-10.64v-2.22Z" transform="translate(-45.09 -180.89)"/><path class="cls-1" d="M1798.84,813.67H1807a35.94,35.94,0,0,0,11.32,10.24,26.17,26.17,0,0,0,12.59,3.24,16,16,0,0,0,5.25-.82,13,13,0,0,0,4.15-2.25,10.42,10.42,0,0,0,2.73-3.35,9.08,9.08,0,0,0,1-4.15,10.16,10.16,0,0,0-1.11-4.72,11.27,11.27,0,0,0-3.57-3.91,23.79,23.79,0,0,0-6.29-3,57.18,57.18,0,0,0-9.27-2.1,37.31,37.31,0,0,1-10.71-3.06,23.75,23.75,0,0,1-7.23-5.17,19.23,19.23,0,0,1-4.11-6.77,24,24,0,0,1-1.29-7.88,18.92,18.92,0,0,1,1.51-7.44,18.3,18.3,0,0,1,4.51-6.36,22.5,22.5,0,0,1,7.45-4.47,29.24,29.24,0,0,1,10.35-1.69,23.18,23.18,0,0,1,11.54,2.92,24,24,0,0,1,4.44,3.18,43.09,43.09,0,0,1,3.82,3.94v-8h9v21h-9a23.74,23.74,0,0,0-3.11-5.42,21.33,21.33,0,0,0-4.4-4.35,20.73,20.73,0,0,0-5.44-2.89,19.37,19.37,0,0,0-12.13-.15,14.3,14.3,0,0,0-4.3,2.34,10,10,0,0,0-2.61,3.18,7.69,7.69,0,0,0-.87,3.44,11.25,11.25,0,0,0,.77,4.12,9.37,9.37,0,0,0,2.75,3.62,19,19,0,0,0,5.36,3,46.92,46.92,0,0,0,8.6,2.25,61.9,61.9,0,0,1,12.27,3.38,25,25,0,0,1,7.93,4.94,16.44,16.44,0,0,1,4.26,6.71,27.14,27.14,0,0,1,1.28,8.61,21.47,21.47,0,0,1-1.33,7.29,20,20,0,0,1-4.07,6.66,20.6,20.6,0,0,1-6.91,4.84,23.9,23.9,0,0,1-9.84,1.87,34,34,0,0,1-6.79-.67,31.47,31.47,0,0,1-6.26-2,34.93,34.93,0,0,1-5.83-3.24,45.93,45.93,0,0,1-5.58-4.49v8.64h-9Zm11.83,25.09V833a38.15,38.15,0,0,0,10,5.6,33.24,33.24,0,0,0,11.55,1.92,29,29,0,0,0,9.32-1.51,23.74,23.74,0,0,0,8-4.56,22.11,22.11,0,0,0,5.62-7.64,25.82,25.82,0,0,0,2.11-10.8,39.31,39.31,0,0,0-.54-6.8,21.83,21.83,0,0,0-2.13-6.16,11.18,11.18,0,0,1,1.73,2.43,18.88,18.88,0,0,1,1.34,3.15,25.19,25.19,0,0,1,.87,3.62,22.91,22.91,0,0,1,.32,3.76,29.13,29.13,0,0,1-2.09,11.38,23.94,23.94,0,0,1-14.2,13.57,29.94,29.94,0,0,1-10.4,1.78,36,36,0,0,1-11.09-1.57,30.94,30.94,0,0,1-8.75-4.38V841h-11.11v-2.22Zm-9.09-44.82a23.5,23.5,0,0,0,3.17,4.61,19.4,19.4,0,0,0,4.38,3.62,30,30,0,0,0,6,2.74,51.57,51.57,0,0,0,8.07,1.93c3,.5,5.57,1,7.71,1.57a32.74,32.74,0,0,1,5.31,1.78,10.34,10.34,0,0,1,3.25,2.19,6.28,6.28,0,0,1,1.53,2.86,18.68,18.68,0,0,0-2.45-1.78,19.11,19.11,0,0,0-3.32-1.52,48,48,0,0,0-5.1-1.43c-2.05-.46-4.62-1-7.73-1.51a43.6,43.6,0,0,1-8.66-2.4,27.88,27.88,0,0,1-6.38-3.47,15.68,15.68,0,0,1-4.06-4.32A11.74,11.74,0,0,1,1801.58,793.94Zm12.91-15.12a3.35,3.35,0,0,1,.86-2.22,6.94,6.94,0,0,1,2.37-1.69,16.71,16.71,0,0,1,3.57-1.11,22.81,22.81,0,0,1,4.44-.41,13.94,13.94,0,0,1,6.71,1.67,16,16,0,0,1,5.12,4.29,24.2,24.2,0,0,0-2.51-1.37,31,31,0,0,0-2.93-1.23,21,21,0,0,0-3.15-.87,15.71,15.71,0,0,0-3.16-.33,21.18,21.18,0,0,0-7.15,1A12.93,12.93,0,0,0,1814.49,778.82Zm32,8.29h9.44V765h1.68v24.34h-11.12Z" transform="translate(-45.09 -180.89)"/><path class="cls-1" d="M342.52,573.1s22.6,2.51,22.6-20.09V366s-1.8-18.83,18.56-18.83h201s17.71-.18,17.71,19.19V556s.23,14.78-17.44,17.21H477.3s-23.05,1.17-26.81,26.28V844.28s1.61,14.93-16.77,18.76H265.58s-18.48-1.19-18.48-20V591.21s-1.25-18.11,21.35-18.11Z" transform="translate(-45.09 -180.89)"/><path class="cls-2" d="M96.45,363.26s.18-16.14,17-16.14H331.33s16.18.89,16.21,16.14V543.33s.21,15.91-14.25,15.93h-222s-14.81-1.41-14.81-14.5Z" transform="translate(-45.09 -180.89)"/><path class="cls-1" d="M180.92,855.51s-124.64-3.7-84.47-161.89c0,0,45.2-153.16,229.75-280,0,0,115.5-82,213.42-79.28,0,0,90.25-12.73,110.41,80.35,0,0,17.65-114.06-110.41-121.6,0,0-115.5-8.78-263.64,105.46,0,0-169.67,122.27-219.17,280.84S127.3,861.71,180.92,855.51Z" transform="translate(-45.09 -180.89)"/><polygon class="cls-3" points="610.39 147.65 511.27 119.78 528.62 221.27 499.56 122.05 421.27 184.26 491.33 112.9 395.69 73.62 494.81 101.49 477.46 0 506.52 99.23 584.82 37.02 514.75 108.37 610.39 147.65"/></svg>